<?xml version="1.0" standalone="no"?>
<!DOCTYPE svg PUBLIC "-//W3C//DTD SVG 1.1//EN" "http://www.w3.org/Graphics/SVG/1.1/DTD/svg11.dtd">
<svg version="1.1" width="1200" height="934" onload="init(evt)" viewBox="0 0 1200 934" xmlns="http://www.w3.org/2000/svg" xmlns:xlink="http://www.w3.org/1999/xlink">
<style type="text/css">
	text { font-family:Verdana; font-size:12px; fill:rgb(0,0,0); }
	#search { opacity:0.1; cursor:pointer; }
	#search:hover, #search.show { opacity:1; }
	#subtitle { text-anchor:middle; font-color:rgb(160,160,160); }
	#title { text-anchor:middle; font-size:17px}
	#unzoom { cursor:pointer; }
	#frames > *:hover { stroke:black; stroke-width:0.5; cursor:pointer; }
	.hide { display:none; }
	.parent { opacity:0.5; }
</style>
<script type="text/ecmascript">
<![CDATA[
	"use strict";
	var details, searchbtn, unzoombtn, matchedtxt, svg, searching;
	function init(evt) {
		details = document.getElementById("details").firstChild;
		searchbtn = document.getElementById("search");
		unzoombtn = document.getElementById("unzoom");
		matchedtxt = document.getElementById("matched");
		svg = document.getElementsByTagName("svg")[0];
		searching = 0;
	}

	window.addEventListener("click", function(e) {
		var target = find_group(e.target);
		if (target) {
			if (target.nodeName == "a") {
				if (e.ctrlKey === false) return;
				e.preventDefault();
			}
			if (target.classList.contains("parent")) unzoom();
			zoom(target);
		}
		else if (e.target.id == "unzoom") unzoom();
		else if (e.target.id == "search") search_prompt();
	}, false)

	// mouse-over for info
	// show
	window.addEventListener("mouseover", function(e) {
		var target = find_group(e.target);
		if (target) details.nodeValue = "Function: " + g_to_text(target);
	}, false)

	// clear
	window.addEventListener("mouseout", function(e) {
		var target = find_group(e.target);
		if (target) details.nodeValue = ' ';
	}, false)

	// ctrl-F for search
	window.addEventListener("keydown",function (e) {
		if (e.keyCode === 114 || (e.ctrlKey && e.keyCode === 70)) {
			e.preventDefault();
			search_prompt();
		}
	}, false)

	// functions
	function find_child(node, selector) {
		var children = node.querySelectorAll(selector);
		if (children.length) return children[0];
		return;
	}
	function find_group(node) {
		var parent = node.parentElement;
		if (!parent) return;
		if (parent.id == "frames") return node;
		return find_group(parent);
	}
	function orig_save(e, attr, val) {
		if (e.attributes["_orig_" + attr] != undefined) return;
		if (e.attributes[attr] == undefined) return;
		if (val == undefined) val = e.attributes[attr].value;
		e.setAttribute("_orig_" + attr, val);
	}
	function orig_load(e, attr) {
		if (e.attributes["_orig_"+attr] == undefined) return;
		e.attributes[attr].value = e.attributes["_orig_" + attr].value;
		e.removeAttribute("_orig_"+attr);
	}
	function g_to_text(e) {
		var text = find_child(e, "title").firstChild.nodeValue;
		return (text)
	}
	function g_to_func(e) {
		var func = g_to_text(e);
		// if there's any manipulation we want to do to the function
		// name before it's searched, do it here before returning.
		return (func);
	}
	function update_text(e) {
		var r = find_child(e, "rect");
		var t = find_child(e, "text");
		var w = parseFloat(r.attributes.width.value) -3;
		var txt = find_child(e, "title").textContent.replace(/\([^(]*\)$/,"");
		t.attributes.x.value = parseFloat(r.attributes.x.value) + 3;

		// Smaller than this size won't fit anything
		if (w < 2 * 12 * 0.59) {
			t.textContent = "";
			return;
		}

		t.textContent = txt;
		// Fit in full text width
		if (/^ *$/.test(txt) || t.getSubStringLength(0, txt.length) < w)
			return;

		for (var x = txt.length - 2; x > 0; x--) {
			if (t.getSubStringLength(0, x + 2) <= w) {
				t.textContent = txt.substring(0, x) + "..";
				return;
			}
		}
		t.textContent = "";
	}

	// zoom
	function zoom_reset(e) {
		if (e.attributes != undefined) {
			orig_load(e, "x");
			orig_load(e, "width");
		}
		if (e.childNodes == undefined) return;
		for (var i = 0, c = e.childNodes; i < c.length; i++) {
			zoom_reset(c[i]);
		}
	}
	function zoom_child(e, x, ratio) {
		if (e.attributes != undefined) {
			if (e.attributes.x != undefined) {
				orig_save(e, "x");
				e.attributes.x.value = (parseFloat(e.attributes.x.value) - x - 10) * ratio + 10;
				if (e.tagName == "text")
					e.attributes.x.value = find_child(e.parentNode, "rect[x]").attributes.x.value + 3;
			}
			if (e.attributes.width != undefined) {
				orig_save(e, "width");
				e.attributes.width.value = parseFloat(e.attributes.width.value) * ratio;
			}
		}

		if (e.childNodes == undefined) return;
		for (var i = 0, c = e.childNodes; i < c.length; i++) {
			zoom_child(c[i], x - 10, ratio);
		}
	}
	function zoom_parent(e) {
		if (e.attributes) {
			if (e.attributes.x != undefined) {
				orig_save(e, "x");
				e.attributes.x.value = 10;
			}
			if (e.attributes.width != undefined) {
				orig_save(e, "width");
				e.attributes.width.value = parseInt(svg.width.baseVal.value) - (10 * 2);
			}
		}
		if (e.childNodes == undefined) return;
		for (var i = 0, c = e.childNodes; i < c.length; i++) {
			zoom_parent(c[i]);
		}
	}
	function zoom(node) {
		var attr = find_child(node, "rect").attributes;
		var width = parseFloat(attr.width.value);
		var xmin = parseFloat(attr.x.value);
		var xmax = parseFloat(xmin + width);
		var ymin = parseFloat(attr.y.value);
		var ratio = (svg.width.baseVal.value - 2 * 10) / width;

		// XXX: Workaround for JavaScript float issues (fix me)
		var fudge = 0.0001;

		unzoombtn.classList.remove("hide");

		var el = document.getElementById("frames").children;
		for (var i = 0; i < el.length; i++) {
			var e = el[i];
			var a = find_child(e, "rect").attributes;
			var ex = parseFloat(a.x.value);
			var ew = parseFloat(a.width.value);
			var upstack;
			// Is it an ancestor
			if (0 == 0) {
				upstack = parseFloat(a.y.value) > ymin;
			} else {
				upstack = parseFloat(a.y.value) < ymin;
			}
			if (upstack) {
				// Direct ancestor
				if (ex <= xmin && (ex+ew+fudge) >= xmax) {
					e.classList.add("parent");
					zoom_parent(e);
					update_text(e);
				}
				// not in current path
				else
					e.classList.add("hide");
			}
			// Children maybe
			else {
				// no common path
				if (ex < xmin || ex + fudge >= xmax) {
					e.classList.add("hide");
				}
				else {
					zoom_child(e, xmin, ratio);
					update_text(e);
				}
			}
		}
	}
	function unzoom() {
		unzoombtn.classList.add("hide");
		var el = document.getElementById("frames").children;
		for(var i = 0; i < el.length; i++) {
			el[i].classList.remove("parent");
			el[i].classList.remove("hide");
			zoom_reset(el[i]);
			update_text(el[i]);
		}
	}

	// search
	function reset_search() {
		var el = document.querySelectorAll("#frames rect");
		for (var i = 0; i < el.length; i++) {
			orig_load(el[i], "fill")
		}
	}
	function search_prompt() {
		if (!searching) {
			var term = prompt("Enter a search term (regexp " +
			    "allowed, eg: ^ext4_)", "");
			if (term != null) {
				search(term)
			}
		} else {
			reset_search();
			searching = 0;
			searchbtn.classList.remove("show");
			searchbtn.firstChild.nodeValue = "Search"
			matchedtxt.classList.add("hide");
			matchedtxt.firstChild.nodeValue = ""
		}
	}
	function search(term) {
		var re = new RegExp(term);
		var el = document.getElementById("frames").children;
		var matches = new Object();
		var maxwidth = 0;
		for (var i = 0; i < el.length; i++) {
			var e = el[i];
			var func = g_to_func(e);
			var rect = find_child(e, "rect");
			if (func == null || rect == null)
				continue;

			// Save max width. Only works as we have a root frame
			var w = parseFloat(rect.attributes.width.value);
			if (w > maxwidth)
				maxwidth = w;

			if (func.match(re)) {
				// highlight
				var x = parseFloat(rect.attributes.x.value);
				orig_save(rect, "fill");
				rect.attributes.fill.value = "rgb(230,0,230)";

				// remember matches
				if (matches[x] == undefined) {
					matches[x] = w;
				} else {
					if (w > matches[x]) {
						// overwrite with parent
						matches[x] = w;
					}
				}
				searching = 1;
			}
		}
		if (!searching)
			return;

		searchbtn.classList.add("show");
		searchbtn.firstChild.nodeValue = "Reset Search";

		// calculate percent matched, excluding vertical overlap
		var count = 0;
		var lastx = -1;
		var lastw = 0;
		var keys = Array();
		for (k in matches) {
			if (matches.hasOwnProperty(k))
				keys.push(k);
		}
		// sort the matched frames by their x location
		// ascending, then width descending
		keys.sort(function(a, b){
			return a - b;
		});
		// Step through frames saving only the biggest bottom-up frames
		// thanks to the sort order. This relies on the tree property
		// where children are always smaller than their parents.
		var fudge = 0.0001;	// JavaScript floating point
		for (var k in keys) {
			var x = parseFloat(keys[k]);
			var w = matches[keys[k]];
			if (x >= lastx + lastw - fudge) {
				count += w;
				lastx = x;
				lastw = w;
			}
		}
		// display matched percent
		matchedtxt.classList.remove("hide");
		var pct = 100 * count / maxwidth;
		if (pct != 100) pct = pct.toFixed(1)
		matchedtxt.firstChild.nodeValue = "Matched: " + pct + "%";
	}
]]>
</script>
<rect x="0" y="0" width="100%" height="100%" fill="rgb(240,240,220)"/>
<text id="title" x="600" y="24">Flame Graph</text>
<text id="details" x="10" y="917"> </text>
<text id="unzoom" x="10" y="24" class="hide">Reset Zoom</text>
<text id="search" x="1090" y="24">Search</text>
<text id="matched" x="1090" y="917"> </text>
<g id="frames">
<g>
<title>all (15 samples, 100.00%)</title><rect x="10.0" y="883.0" width="1180.0" height="15" fill="#e15a5a" rx="2" ry="2"/>
<text x="13.0" y="894.0">all</text>
</g>
<g>
<title>Ognl.main (1 samples, 6.67%)</title><rect x="10.0" y="867.0" width="78.7" height="15" fill="#53e453" rx="2" ry="2"/>
<text x="13.0" y="878.0">Ognl.main</text>
</g>
<g>
<title>java/lang/Thread.sleep (1 samples, 6.67%)</title><rect x="10.0" y="851.0" width="78.7" height="15" fill="#66f766" rx="2" ry="2"/>
<text x="13.0" y="862.0">java/lang..</text>
</g>
<g>
<title>JVM_Sleep (1 samples, 6.67%)</title><rect x="10.0" y="835.0" width="78.7" height="15" fill="#ee6c6c" rx="2" ry="2"/>
<text x="13.0" y="846.0">JVM_Sleep</text>
</g>
<g>
<title>os::sleep(Thread*, long, bool) (1 samples, 6.67%)</title><rect x="10.0" y="819.0" width="78.7" height="15" fill="#d7d741" rx="2" ry="2"/>
<text x="13.0" y="830.0">os::sleep..</text>
</g>
<g>
<title>os::PlatformEvent::park(long) (1 samples, 6.67%)</title><rect x="10.0" y="803.0" width="78.7" height="15" fill="#cece3e" rx="2" ry="2"/>
<text x="13.0" y="814.0">os::Platf..</text>
</g>
<g>
<title>__psynch_cvwait (1 samples, 6.67%)</title><rect x="10.0" y="787.0" width="78.7" height="15" fill="#e25b5b" rx="2" ry="2"/>
<text x="13.0" y="798.0">__psynch_..</text>
</g>
<g>
<title>java/lang/Thread.run (5 samples, 33.33%)</title><rect x="88.7" y="867.0" width="393.3" height="15" fill="#64f564" rx="2" ry="2"/>
<text x="91.7" y="878.0">java/lang/Thread.run</text>
</g>
<g>
<title>io/netty/util/concurrent/FastThreadLocalRunnable.run (5 samples, 33.33%)</title><rect x="88.7" y="851.0" width="393.3" height="15" fill="#64f564" rx="2" ry="2"/>
<text x="91.7" y="862.0">io/netty/util/concurrent/FastThreadLocalRunnable.run</text>
</g>
<g>
<title>io/netty/util/internal/ThreadExecutorMap$2.run (5 samples, 33.33%)</title><rect x="88.7" y="835.0" width="393.3" height="15" fill="#6cfd6c" rx="2" ry="2"/>
<text x="91.7" y="846.0">io/netty/util/internal/ThreadExecutorMap$2.run</text>
</g>
<g>
<title>io/netty/util/concurrent/SingleThreadEventExecutor$5.run (5 samples, 33.33%)</title><rect x="88.7" y="819.0" width="393.3" height="15" fill="#5bec5b" rx="2" ry="2"/>
<text x="91.7" y="830.0">io/netty/util/concurrent/SingleThreadEventExecutor$5.run</text>
</g>
<g>
<title>io/netty/channel/nio/NioEventLoop.run (5 samples, 33.33%)</title><rect x="88.7" y="803.0" width="393.3" height="15" fill="#5ff05f" rx="2" ry="2"/>
<text x="91.7" y="814.0">io/netty/channel/nio/NioEventLoop.run</text>
</g>
<g>
<title>io/netty/channel/nio/NioEventLoop.processSelectedKeys (3 samples, 20.00%)</title><rect x="88.7" y="787.0" width="236.0" height="15" fill="#68f968" rx="2" ry="2"/>
<text x="91.7" y="798.0">io/netty/channel/nio/NioEventLo..</text>
</g>
<g>
<title>io/netty/channel/nio/NioEventLoop.processSelectedKeysOptimized (3 samples, 20.00%)</title><rect x="88.7" y="771.0" width="236.0" height="15" fill="#51e251" rx="2" ry="2"/>
<text x="91.7" y="782.0">io/netty/channel/nio/NioEventLo..</text>
</g>
<g>
<title>io/netty/channel/nio/NioEventLoop.processSelectedKey (3 samples, 20.00%)</title><rect x="88.7" y="755.0" width="236.0" height="15" fill="#51e251" rx="2" ry="2"/>
<text x="91.7" y="766.0">io/netty/channel/nio/NioEventLo..</text>
</g>
<g>
<title>io/netty/channel/nio/AbstractNioByteChannel$NioByteUnsafe.read (3 samples, 20.00%)</title><rect x="88.7" y="739.0" width="236.0" height="15" fill="#5ff05f" rx="2" ry="2"/>
<text x="91.7" y="750.0">io/netty/channel/nio/AbstractNi..</text>
</g>
<g>
<title>io/netty/channel/DefaultChannelPipeline.fireChannelRead (3 samples, 20.00%)</title><rect x="88.7" y="723.0" width="236.0" height="15" fill="#64f564" rx="2" ry="2"/>
<text x="91.7" y="734.0">io/netty/channel/DefaultChannel..</text>
</g>
<g>
<title>io/netty/channel/AbstractChannelHandlerContext.invokeChannelRead (3 samples, 20.00%)</title><rect x="88.7" y="707.0" width="236.0" height="15" fill="#50e150" rx="2" ry="2"/>
<text x="91.7" y="718.0">io/netty/channel/AbstractChanne..</text>
</g>
<g>
<title>io/netty/channel/AbstractChannelHandlerContext.invokeChannelRead (3 samples, 20.00%)</title><rect x="88.7" y="691.0" width="236.0" height="15" fill="#5bec5b" rx="2" ry="2"/>
<text x="91.7" y="702.0">io/netty/channel/AbstractChanne..</text>
</g>
<g>
<title>io/netty/channel/DefaultChannelPipeline$HeadContext.channelRead (3 samples, 20.00%)</title><rect x="88.7" y="675.0" width="236.0" height="15" fill="#52e352" rx="2" ry="2"/>
<text x="91.7" y="686.0">io/netty/channel/DefaultChannel..</text>
</g>
<g>
<title>io/netty/channel/AbstractChannelHandlerContext.fireChannelRead (3 samples, 20.00%)</title><rect x="88.7" y="659.0" width="236.0" height="15" fill="#5ced5c" rx="2" ry="2"/>
<text x="91.7" y="670.0">io/netty/channel/AbstractChanne..</text>
</g>
<g>
<title>io/netty/channel/AbstractChannelHandlerContext.invokeChannelRead (3 samples, 20.00%)</title><rect x="88.7" y="643.0" width="236.0" height="15" fill="#64f564" rx="2" ry="2"/>
<text x="91.7" y="654.0">io/netty/channel/AbstractChanne..</text>
</g>
<g>
<title>io/netty/channel/AbstractChannelHandlerContext.invokeChannelRead (3 samples, 20.00%)</title><rect x="88.7" y="627.0" width="236.0" height="15" fill="#61f261" rx="2" ry="2"/>
<text x="91.7" y="638.0">io/netty/channel/AbstractChanne..</text>
</g>
<g>
<title>io/termd/core/telnet/netty/TelnetChannelHandler.channelRead (3 samples, 20.00%)</title><rect x="88.7" y="611.0" width="236.0" height="15" fill="#6bfc6b" rx="2" ry="2"/>
<text x="91.7" y="622.0">io/termd/core/telnet/netty/Teln..</text>
</g>
<g>
<title>io/termd/core/telnet/TelnetConnection.receive (3 samples, 20.00%)</title><rect x="88.7" y="595.0" width="236.0" height="15" fill="#69fa69" rx="2" ry="2"/>
<text x="91.7" y="606.0">io/termd/core/telnet/TelnetConn..</text>
</g>
<g>
<title>io/termd/core/telnet/TelnetConnection.flushDataIfNecessary (3 samples, 20.00%)</title><rect x="88.7" y="579.0" width="236.0" height="15" fill="#5ff05f" rx="2" ry="2"/>
<text x="91.7" y="590.0">io/termd/core/telnet/TelnetConn..</text>
</g>
<g>
<title>io/termd/core/telnet/TelnetConnection.flushData (3 samples, 20.00%)</title><rect x="88.7" y="563.0" width="236.0" height="15" fill="#52e352" rx="2" ry="2"/>
<text x="91.7" y="574.0">io/termd/core/telnet/TelnetConn..</text>
</g>
<g>
<title>io/termd/core/telnet/TelnetTtyConnection.onData (3 samples, 20.00%)</title><rect x="88.7" y="547.0" width="236.0" height="15" fill="#63f463" rx="2" ry="2"/>
<text x="91.7" y="558.0">io/termd/core/telnet/TelnetTtyC..</text>
</g>
<g>
<title>io/termd/core/io/BinaryDecoder.write (3 samples, 20.00%)</title><rect x="88.7" y="531.0" width="236.0" height="15" fill="#5ced5c" rx="2" ry="2"/>
<text x="91.7" y="542.0">io/termd/core/io/BinaryDecoder...</text>
</g>
<g>
<title>io/termd/core/io/BinaryDecoder.write (3 samples, 20.00%)</title><rect x="88.7" y="515.0" width="236.0" height="15" fill="#65f665" rx="2" ry="2"/>
<text x="91.7" y="526.0">io/termd/core/io/BinaryDecoder...</text>
</g>
<g>
<title>io/termd/core/tty/ReadBuffer.accept (3 samples, 20.00%)</title><rect x="88.7" y="499.0" width="236.0" height="15" fill="#6bfc6b" rx="2" ry="2"/>
<text x="91.7" y="510.0">io/termd/core/tty/ReadBuffer.ac..</text>
</g>
<g>
<title>io/termd/core/tty/ReadBuffer.accept (3 samples, 20.00%)</title><rect x="88.7" y="483.0" width="236.0" height="15" fill="#66f766" rx="2" ry="2"/>
<text x="91.7" y="494.0">io/termd/core/tty/ReadBuffer.ac..</text>
</g>
<g>
<title>io/termd/core/tty/TtyEventDecoder.accept (3 samples, 20.00%)</title><rect x="88.7" y="467.0" width="236.0" height="15" fill="#57e857" rx="2" ry="2"/>
<text x="91.7" y="478.0">io/termd/core/tty/TtyEventDecod..</text>
</g>
<g>
<title>io/termd/core/tty/TtyEventDecoder.accept (3 samples, 20.00%)</title><rect x="88.7" y="451.0" width="236.0" height="15" fill="#51e251" rx="2" ry="2"/>
<text x="91.7" y="462.0">io/termd/core/tty/TtyEventDecod..</text>
</g>
<g>
<title>io/termd/core/readline/Readline$Interaction$2.accept (3 samples, 20.00%)</title><rect x="88.7" y="435.0" width="236.0" height="15" fill="#66f766" rx="2" ry="2"/>
<text x="91.7" y="446.0">io/termd/core/readline/Readline..</text>
</g>
<g>
<title>io/termd/core/readline/Readline$Interaction$2.accept (3 samples, 20.00%)</title><rect x="88.7" y="419.0" width="236.0" height="15" fill="#59ea59" rx="2" ry="2"/>
<text x="91.7" y="430.0">io/termd/core/readline/Readline..</text>
</g>
<g>
<title>io/termd/core/readline/Readline.access$500 (2 samples, 13.33%)</title><rect x="167.3" y="403.0" width="157.4" height="15" fill="#62f362" rx="2" ry="2"/>
<text x="170.3" y="414.0">io/termd/core/readli..</text>
</g>
<g>
<title>io/termd/core/readline/Readline.deliver (2 samples, 13.33%)</title><rect x="167.3" y="387.0" width="157.4" height="15" fill="#66f766" rx="2" ry="2"/>
<text x="170.3" y="398.0">io/termd/core/readli..</text>
</g>
<g>
<title>io/termd/core/readline/Readline$Interaction.access$200 (2 samples, 13.33%)</title><rect x="167.3" y="371.0" width="157.4" height="15" fill="#6dfe6d" rx="2" ry="2"/>
<text x="170.3" y="382.0">io/termd/core/readli..</text>
</g>
<g>
<title>io/termd/core/readline/Readline$Interaction.handle (2 samples, 13.33%)</title><rect x="167.3" y="355.0" width="157.4" height="15" fill="#5aeb5a" rx="2" ry="2"/>
<text x="170.3" y="366.0">io/termd/core/readli..</text>
</g>
<g>
<title>io/termd/core/readline/Readline$2.apply (2 samples, 13.33%)</title><rect x="167.3" y="339.0" width="157.4" height="15" fill="#57e857" rx="2" ry="2"/>
<text x="170.3" y="350.0">io/termd/core/readli..</text>
</g>
<g>
<title>io/termd/core/readline/Readline$Interaction.access$000 (2 samples, 13.33%)</title><rect x="167.3" y="323.0" width="157.4" height="15" fill="#6dfe6d" rx="2" ry="2"/>
<text x="170.3" y="334.0">io/termd/core/readli..</text>
</g>
<g>
<title>io/termd/core/readline/Readline$Interaction.end (2 samples, 13.33%)</title><rect x="167.3" y="307.0" width="157.4" height="15" fill="#65f665" rx="2" ry="2"/>
<text x="170.3" y="318.0">io/termd/core/readli..</text>
</g>
<g>
<title>com/taobao/arthas/core/shell/handlers/term/RequestHandler.accept (2 samples, 13.33%)</title><rect x="167.3" y="291.0" width="157.4" height="15" fill="#66f766" rx="2" ry="2"/>
<text x="170.3" y="302.0">com/taobao/arthas/co..</text>
</g>
<g>
<title>com/taobao/arthas/core/shell/handlers/term/RequestHandler.accept (2 samples, 13.33%)</title><rect x="167.3" y="275.0" width="157.4" height="15" fill="#63f463" rx="2" ry="2"/>
<text x="170.3" y="286.0">com/taobao/arthas/co..</text>
</g>
<g>
<title>com/taobao/arthas/core/shell/handlers/shell/ShellLineHandler.handle (2 samples, 13.33%)</title><rect x="167.3" y="259.0" width="157.4" height="15" fill="#52e352" rx="2" ry="2"/>
<text x="170.3" y="270.0">com/taobao/arthas/co..</text>
</g>
<g>
<title>com/taobao/arthas/core/shell/handlers/shell/ShellLineHandler.handle (2 samples, 13.33%)</title><rect x="167.3" y="243.0" width="157.4" height="15" fill="#62f362" rx="2" ry="2"/>
<text x="170.3" y="254.0">com/taobao/arthas/co..</text>
</g>
<g>
<title>com/taobao/arthas/core/shell/handlers/shell/ShellLineHandler.createJob (1 samples, 6.67%)</title><rect x="167.3" y="227.0" width="78.7" height="15" fill="#6afb6a" rx="2" ry="2"/>
<text x="170.3" y="238.0">com/taoba..</text>
</g>
<g>
<title>com/taobao/arthas/core/shell/impl/ShellImpl.createJob (1 samples, 6.67%)</title><rect x="167.3" y="211.0" width="78.7" height="15" fill="#58e958" rx="2" ry="2"/>
<text x="170.3" y="222.0">com/taoba..</text>
</g>
<g>
<title>com/taobao/arthas/core/shell/system/impl/GlobalJobControllerImpl.createJob (1 samples, 6.67%)</title><rect x="167.3" y="195.0" width="78.7" height="15" fill="#5dee5d" rx="2" ry="2"/>
<text x="170.3" y="206.0">com/taoba..</text>
</g>
<g>
<title>com/taobao/arthas/core/shell/system/impl/JobControllerImpl.createJob (1 samples, 6.67%)</title><rect x="167.3" y="179.0" width="78.7" height="15" fill="#66f766" rx="2" ry="2"/>
<text x="170.3" y="190.0">com/taoba..</text>
</g>
<g>
<title>com/taobao/arthas/core/shell/system/impl/JobControllerImpl.createProcess (1 samples, 6.67%)</title><rect x="167.3" y="163.0" width="78.7" height="15" fill="#5eef5e" rx="2" ry="2"/>
<text x="170.3" y="174.0">com/taoba..</text>
</g>
<g>
<title>com/taobao/arthas/core/shell/system/impl/InternalCommandManager.getCommand (1 samples, 6.67%)</title><rect x="167.3" y="147.0" width="78.7" height="15" fill="#57e857" rx="2" ry="2"/>
<text x="170.3" y="158.0">com/taoba..</text>
</g>
<g>
<title>com/taobao/arthas/core/shell/system/impl/InternalCommandManager.getCommand (1 samples, 6.67%)</title><rect x="167.3" y="131.0" width="78.7" height="15" fill="#58e958" rx="2" ry="2"/>
<text x="170.3" y="142.0">com/taoba..</text>
</g>
<g>
<title>com/taobao/arthas/core/shell/command/impl/AnnotatedCommandImpl.name (1 samples, 6.67%)</title><rect x="167.3" y="115.0" width="78.7" height="15" fill="#5aeb5a" rx="2" ry="2"/>
<text x="170.3" y="126.0">com/taoba..</text>
</g>
<g>
<title>com/taobao/arthas/core/shell/command/impl/AnnotatedCommandImpl.shouldOverridesName (1 samples, 6.67%)</title><rect x="167.3" y="99.0" width="78.7" height="15" fill="#54e554" rx="2" ry="2"/>
<text x="170.3" y="110.0">com/taoba..</text>
</g>
<g>
<title>java/lang/Class.getDeclaredMethod (1 samples, 6.67%)</title><rect x="167.3" y="83.0" width="78.7" height="15" fill="#5eef5e" rx="2" ry="2"/>
<text x="170.3" y="94.0">java/lang..</text>
</g>
<g>
<title>sun/reflect/Reflection.getCallerClass (1 samples, 6.67%)</title><rect x="167.3" y="67.0" width="78.7" height="15" fill="#6afb6a" rx="2" ry="2"/>
<text x="170.3" y="78.0">sun/refle..</text>
</g>
<g>
<title>JVM_GetCallerClass (1 samples, 6.67%)</title><rect x="167.3" y="51.0" width="78.7" height="15" fill="#fc7e7e" rx="2" ry="2"/>
<text x="170.3" y="62.0">JVM_GetCa..</text>
</g>
<g>
<title>JNIHandleBlock::allocate_handle(oopDesc*) (1 samples, 6.67%)</title><rect x="167.3" y="35.0" width="78.7" height="15" fill="#c9c93c" rx="2" ry="2"/>
<text x="170.3" y="46.0">JNIHandle..</text>
</g>
<g>
<title>com/taobao/arthas/core/shell/system/impl/JobImpl.run (1 samples, 6.67%)</title><rect x="246.0" y="227.0" width="78.7" height="15" fill="#6bfc6b" rx="2" ry="2"/>
<text x="249.0" y="238.0">com/taoba..</text>
</g>
<g>
<title>com/taobao/arthas/core/shell/system/impl/JobImpl.run (1 samples, 6.67%)</title><rect x="246.0" y="211.0" width="78.7" height="15" fill="#5ff05f" rx="2" ry="2"/>
<text x="249.0" y="222.0">com/taoba..</text>
</g>
<g>
<title>com/taobao/arthas/core/shell/system/impl/ProcessImpl.run (1 samples, 6.67%)</title><rect x="246.0" y="195.0" width="78.7" height="15" fill="#5ff05f" rx="2" ry="2"/>
<text x="249.0" y="206.0">com/taoba..</text>
</g>
<g>
<title>com/taobao/middleware/cli/impl/DefaultCLI.parse (1 samples, 6.67%)</title><rect x="246.0" y="179.0" width="78.7" height="15" fill="#59ea59" rx="2" ry="2"/>
<text x="249.0" y="190.0">com/taoba..</text>
</g>
<g>
<title>com/taobao/middleware/cli/impl/DefaultParser.parse (1 samples, 6.67%)</title><rect x="246.0" y="163.0" width="78.7" height="15" fill="#6dfe6d" rx="2" ry="2"/>
<text x="249.0" y="174.0">com/taoba..</text>
</g>
<g>
<title>java/util/Collections.sort (1 samples, 6.67%)</title><rect x="246.0" y="147.0" width="78.7" height="15" fill="#5eef5e" rx="2" ry="2"/>
<text x="249.0" y="158.0">java/util..</text>
</g>
<g>
<title>java/util/ArrayList.sort (1 samples, 6.67%)</title><rect x="246.0" y="131.0" width="78.7" height="15" fill="#57e857" rx="2" ry="2"/>
<text x="249.0" y="142.0">java/util..</text>
</g>
<g>
<title>java/util/Arrays.sort (1 samples, 6.67%)</title><rect x="246.0" y="115.0" width="78.7" height="15" fill="#52e352" rx="2" ry="2"/>
<text x="249.0" y="126.0">java/util..</text>
</g>
<g>
<title>java/util/Arrays$LegacyMergeSort.access$000 (1 samples, 6.67%)</title><rect x="246.0" y="99.0" width="78.7" height="15" fill="#6cfd6c" rx="2" ry="2"/>
<text x="249.0" y="110.0">java/util..</text>
</g>
<g>
<title>io/netty/channel/nio/NioEventLoop.select (2 samples, 13.33%)</title><rect x="324.7" y="787.0" width="157.3" height="15" fill="#52e352" rx="2" ry="2"/>
<text x="327.7" y="798.0">io/netty/channel/nio..</text>
</g>
<g>
<title>io/netty/channel/nio/SelectedSelectionKeySetSelector.select (2 samples, 13.33%)</title><rect x="324.7" y="771.0" width="157.3" height="15" fill="#5ff05f" rx="2" ry="2"/>
<text x="327.7" y="782.0">io/netty/channel/nio..</text>
</g>
<g>
<title>sun/nio/ch/SelectorImpl.select (2 samples, 13.33%)</title><rect x="324.7" y="755.0" width="157.3" height="15" fill="#5bec5b" rx="2" ry="2"/>
<text x="327.7" y="766.0">sun/nio/ch/SelectorI..</text>
</g>
<g>
<title>sun/nio/ch/SelectorImpl.lockAndDoSelect (2 samples, 13.33%)</title><rect x="324.7" y="739.0" width="157.3" height="15" fill="#58e958" rx="2" ry="2"/>
<text x="327.7" y="750.0">sun/nio/ch/SelectorI..</text>
</g>
<g>
<title>sun/nio/ch/KQueueSelectorImpl.doSelect (2 samples, 13.33%)</title><rect x="324.7" y="723.0" width="157.3" height="15" fill="#6bfc6b" rx="2" ry="2"/>
<text x="327.7" y="734.0">sun/nio/ch/KQueueSel..</text>
</g>
<g>
<title>java/nio/channels/spi/AbstractSelector.begin (1 samples, 6.67%)</title><rect x="324.7" y="707.0" width="78.6" height="15" fill="#5ff05f" rx="2" ry="2"/>
<text x="327.7" y="718.0">java/nio/..</text>
</g>
<g>
<title>java/lang/Thread.isInterrupted (1 samples, 6.67%)</title><rect x="324.7" y="691.0" width="78.6" height="15" fill="#5dee5d" rx="2" ry="2"/>
<text x="327.7" y="702.0">java/lang..</text>
</g>
<g>
<title>java/lang/Thread.isInterrupted (1 samples, 6.67%)</title><rect x="324.7" y="675.0" width="78.6" height="15" fill="#6cfd6c" rx="2" ry="2"/>
<text x="327.7" y="686.0">java/lang..</text>
</g>
<g>
<title>JavaThread::thread_from_jni_environment(JNIEnv_*) (1 samples, 6.67%)</title><rect x="324.7" y="659.0" width="78.6" height="15" fill="#c9c93c" rx="2" ry="2"/>
<text x="327.7" y="670.0">JavaThrea..</text>
</g>
<g>
<title>sun/nio/ch/KQueueSelectorImpl.updateSelectedKeys (1 samples, 6.67%)</title><rect x="403.3" y="707.0" width="78.7" height="15" fill="#66f766" rx="2" ry="2"/>
<text x="406.3" y="718.0">sun/nio/c..</text>
</g>
<g>
<title>sun/nio/ch/KQueueArrayWrapper.getReventOps (1 samples, 6.67%)</title><rect x="403.3" y="691.0" width="78.7" height="15" fill="#67f867" rx="2" ry="2"/>
<text x="406.3" y="702.0">sun/nio/c..</text>
</g>
<g>
<title>InterpreterRuntime::frequency_counter_overflow(JavaThread*, unsigned char*) (1 samples, 6.67%)</title><rect x="403.3" y="675.0" width="78.7" height="15" fill="#e0e044" rx="2" ry="2"/>
<text x="406.3" y="686.0">Interpret..</text>
</g>
<g>
<title>InterpreterRuntime::frequency_counter_overflow_inner(JavaThread*, unsigned char*) (1 samples, 6.67%)</title><rect x="403.3" y="659.0" width="78.7" height="15" fill="#cbcb3d" rx="2" ry="2"/>
<text x="406.3" y="670.0">Interpret..</text>
</g>
<g>
<title>SimpleThresholdPolicy::event(methodHandle, methodHandle, int, int, CompLevel, nmethod*, JavaThread*) (1 samples, 6.67%)</title><rect x="403.3" y="643.0" width="78.7" height="15" fill="#c8c83c" rx="2" ry="2"/>
<text x="406.3" y="654.0">SimpleThr..</text>
</g>
<g>
<title>AdvancedThresholdPolicy::method_invocation_event(methodHandle, methodHandle, CompLevel, nmethod*, JavaThread*) (1 samples, 6.67%)</title><rect x="403.3" y="627.0" width="78.7" height="15" fill="#dcdc42" rx="2" ry="2"/>
<text x="406.3" y="638.0">AdvancedT..</text>
</g>
<g>
<title>SimpleThresholdPolicy::compile(methodHandle, int, CompLevel, JavaThread*) (1 samples, 6.67%)</title><rect x="403.3" y="611.0" width="78.7" height="15" fill="#e2e244" rx="2" ry="2"/>
<text x="406.3" y="622.0">SimpleThr..</text>
</g>
<g>
<title>AdvancedThresholdPolicy::submit_compile(methodHandle, int, CompLevel, JavaThread*) (1 samples, 6.67%)</title><rect x="403.3" y="595.0" width="78.7" height="15" fill="#dada42" rx="2" ry="2"/>
<text x="406.3" y="606.0">AdvancedT..</text>
</g>
<g>
<title>CompileBroker::compile_method(methodHandle, int, int, methodHandle, int, char const*, Thread*) (1 samples, 6.67%)</title><rect x="403.3" y="579.0" width="78.7" height="15" fill="#dede43" rx="2" ry="2"/>
<text x="406.3" y="590.0">CompileBr..</text>
</g>
<g>
<title>CompileBroker::compile_method_base(methodHandle, int, int, methodHandle, int, char const*, Thread*) (1 samples, 6.67%)</title><rect x="403.3" y="563.0" width="78.7" height="15" fill="#dddd43" rx="2" ry="2"/>
<text x="406.3" y="574.0">CompileBr..</text>
</g>
<g>
<title>os::PlatformEvent::unpark() (1 samples, 6.67%)</title><rect x="403.3" y="547.0" width="78.7" height="15" fill="#e5e545" rx="2" ry="2"/>
<text x="406.3" y="558.0">os::Platf..</text>
</g>
<g>
<title>pthread_cond_signal (1 samples, 6.67%)</title><rect x="403.3" y="531.0" width="78.7" height="15" fill="#fb7d7d" rx="2" ry="2"/>
<text x="406.3" y="542.0">pthread_c..</text>
</g>
<g>
<title>_pthread_cond_updateval (1 samples, 6.67%)</title><rect x="403.3" y="515.0" width="78.7" height="15" fill="#e76363" rx="2" ry="2"/>
<text x="406.3" y="526.0">_pthread_..</text>
</g>
<g>
<title>thread_start (9 samples, 60.00%)</title><rect x="482.0" y="867.0" width="708.0" height="15" fill="#ea6666" rx="2" ry="2"/>
<text x="485.0" y="878.0">thread_start</text>
</g>
<g>
<title>_pthread_start (9 samples, 60.00%)</title><rect x="482.0" y="851.0" width="708.0" height="15" fill="#eb6868" rx="2" ry="2"/>
<text x="485.0" y="862.0">_pthread_start</text>
</g>
<g>
<title>_pthread_body (9 samples, 60.00%)</title><rect x="482.0" y="835.0" width="708.0" height="15" fill="#f06e6e" rx="2" ry="2"/>
<text x="485.0" y="846.0">_pthread_body</text>
</g>
<g>
<title>java_start(Thread*) (9 samples, 60.00%)</title><rect x="482.0" y="819.0" width="708.0" height="15" fill="#f27171" rx="2" ry="2"/>
<text x="485.0" y="830.0">java_start(Thread*)</text>
</g>
<g>
<title>JavaThread::run() (3 samples, 20.00%)</title><rect x="482.0" y="803.0" width="236.0" height="15" fill="#e1e144" rx="2" ry="2"/>
<text x="485.0" y="814.0">JavaThread::run()</text>
</g>
<g>
<title>JavaThread::thread_main_inner() (3 samples, 20.00%)</title><rect x="482.0" y="787.0" width="236.0" height="15" fill="#d4d440" rx="2" ry="2"/>
<text x="485.0" y="798.0">JavaThread::thread_main_inner()</text>
</g>
<g>
<title>CompileBroker::compiler_thread_loop() (3 samples, 20.00%)</title><rect x="482.0" y="771.0" width="236.0" height="15" fill="#e1e144" rx="2" ry="2"/>
<text x="485.0" y="782.0">CompileBroker::compiler_thread_..</text>
</g>
<g>
<title>CompileBroker::invoke_compiler_on_method(CompileTask*) (3 samples, 20.00%)</title><rect x="482.0" y="755.0" width="236.0" height="15" fill="#d0d03e" rx="2" ry="2"/>
<text x="485.0" y="766.0">CompileBroker::invoke_compiler_..</text>
</g>
<g>
<title>C2Compiler::compile_method(ciEnv*, ciMethod*, int) (3 samples, 20.00%)</title><rect x="482.0" y="739.0" width="236.0" height="15" fill="#d4d440" rx="2" ry="2"/>
<text x="485.0" y="750.0">C2Compiler::compile_method(ciEn..</text>
</g>
<g>
<title>Compile::Compile(ciEnv*, C2Compiler*, ciMethod*, int, bool, bool, bool) (3 samples, 20.00%)</title><rect x="482.0" y="723.0" width="236.0" height="15" fill="#d8d841" rx="2" ry="2"/>
<text x="485.0" y="734.0">Compile::Compile(ciEnv*, C2Comp..</text>
</g>
<g>
<title>Compile::Code_Gen() (2 samples, 13.33%)</title><rect x="482.0" y="707.0" width="157.3" height="15" fill="#d6d640" rx="2" ry="2"/>
<text x="485.0" y="718.0">Compile::Code_Gen()</text>
</g>
<g>
<title>PhaseChaitin::Register_Allocate() (2 samples, 13.33%)</title><rect x="482.0" y="691.0" width="157.3" height="15" fill="#d0d03e" rx="2" ry="2"/>
<text x="485.0" y="702.0">PhaseChaitin::Regist..</text>
</g>
<g>
<title>PhaseChaitin::Select() (1 samples, 6.67%)</title><rect x="482.0" y="675.0" width="78.7" height="15" fill="#cdcd3d" rx="2" ry="2"/>
<text x="485.0" y="686.0">PhaseChai..</text>
</g>
<g>
<title>IndexSetIterator::next() (1 samples, 6.67%)</title><rect x="482.0" y="659.0" width="78.7" height="15" fill="#cccc3d" rx="2" ry="2"/>
<text x="485.0" y="670.0">IndexSetI..</text>
</g>
<g>
<title>PhaseChaitin::build_ifg_physical(ResourceArea*) (1 samples, 6.67%)</title><rect x="560.7" y="675.0" width="78.6" height="15" fill="#d9d941" rx="2" ry="2"/>
<text x="563.7" y="686.0">PhaseChai..</text>
</g>
<g>
<title>Block::end_idx() const (1 samples, 6.67%)</title><rect x="560.7" y="659.0" width="78.6" height="15" fill="#e0e044" rx="2" ry="2"/>
<text x="563.7" y="670.0">Block::en..</text>
</g>
<g>
<title>Compile::Optimize() (1 samples, 6.67%)</title><rect x="639.3" y="707.0" width="78.7" height="15" fill="#c8c83c" rx="2" ry="2"/>
<text x="642.3" y="718.0">Compile::..</text>
</g>
<g>
<title>PhaseIdealLoop::build_and_optimize(bool, bool) (1 samples, 6.67%)</title><rect x="639.3" y="691.0" width="78.7" height="15" fill="#d8d841" rx="2" ry="2"/>
<text x="642.3" y="702.0">PhaseIdea..</text>
</g>
<g>
<title>PhaseIdealLoop::split_if_with_blocks(VectorSet&amp;, Node_Stack&amp;) (1 samples, 6.67%)</title><rect x="639.3" y="675.0" width="78.7" height="15" fill="#d6d640" rx="2" ry="2"/>
<text x="642.3" y="686.0">PhaseIdea..</text>
</g>
<g>
<title>WatcherThread::run() (6 samples, 40.00%)</title><rect x="718.0" y="803.0" width="472.0" height="15" fill="#e4e445" rx="2" ry="2"/>
<text x="721.0" y="814.0">WatcherThread::run()</text>
</g>
<g>
<title>WatcherThread::sleep() const (6 samples, 40.00%)</title><rect x="718.0" y="787.0" width="472.0" height="15" fill="#dede43" rx="2" ry="2"/>
<text x="721.0" y="798.0">WatcherThread::sleep() const</text>
</g>
<g>
<title>Monitor::wait(bool, long, bool) (6 samples, 40.00%)</title><rect x="718.0" y="771.0" width="472.0" height="15" fill="#d8d841" rx="2" ry="2"/>
<text x="721.0" y="782.0">Monitor::wait(bool, long, bool)</text>
</g>
<g>
<title>Monitor::IWait(Thread*, long) (6 samples, 40.00%)</title><rect x="718.0" y="755.0" width="472.0" height="15" fill="#e2e244" rx="2" ry="2"/>
<text x="721.0" y="766.0">Monitor::IWait(Thread*, long)</text>
</g>
<g>
<title>os::PlatformEvent::park(long) (6 samples, 40.00%)</title><rect x="718.0" y="739.0" width="472.0" height="15" fill="#dada42" rx="2" ry="2"/>
<text x="721.0" y="750.0">os::PlatformEvent::park(long)</text>
</g>
<g>
<title>__psynch_cvwait (6 samples, 40.00%)</title><rect x="718.0" y="723.0" width="472.0" height="15" fill="#fa7b7b" rx="2" ry="2"/>
<text x="721.0" y="734.0">__psynch_cvwait</text>
</g>
</g>
</svg>
